<svg id="visual" viewBox="0 0 900 600" width="900" height="600" xmlns="http://www.w3.org/2000/svg" xmlns:xlink="http://www.w3.org/1999/xlink" version="1.1"><g stroke-width="1" stroke-linejoin="bevel"><path d="M479 277L406 315L490 388Z" fill="#5c8298" stroke="#5c8298"></path><path d="M406 315L360 414L490 388Z" fill="#5c8298" stroke="#5c8298"></path><path d="M629 337L562 226L479 277Z" fill="#2b556e" stroke="#2b556e"></path><path d="M479 277L405 188L406 315Z" fill="#6d92a7" stroke="#6d92a7"></path><path d="M474 173L405 188L479 277Z" fill="#7ea2b6" stroke="#7ea2b6"></path><path d="M406 315L301 377L360 414Z" fill="#7ea2b6" stroke="#7ea2b6"></path><path d="M529 498L617 376L490 388Z" fill="#8fb2c5" stroke="#8fb2c5"></path><path d="M490 388L629 337L479 277Z" fill="#5c8298" stroke="#5c8298"></path><path d="M562 226L474 173L479 277Z" fill="#6d92a7" stroke="#6d92a7"></path><path d="M617 376L629 337L490 388Z" fill="#3c647c" stroke="#3c647c"></path><path d="M283 275L301 377L406 315Z" fill="#2b556e" stroke="#2b556e"></path><path d="M379 537L529 498L490 388Z" fill="#4c738a" stroke="#4c738a"></path><path d="M405 188L283 275L406 315Z" fill="#2b556e" stroke="#2b556e"></path><path d="M294 502L379 537L360 414Z" fill="#6d92a7" stroke="#6d92a7"></path><path d="M360 414L379 537L490 388Z" fill="#2b556e" stroke="#2b556e"></path><path d="M423 78L312 170L405 188Z" fill="#3c647c" stroke="#3c647c"></path><path d="M405 188L312 170L283 275Z" fill="#6d92a7" stroke="#6d92a7"></path><path d="M629 600L611 502L529 498Z" fill="#5c8298" stroke="#5c8298"></path><path d="M529 498L611 502L617 376Z" fill="#8fb2c5" stroke="#8fb2c5"></path><path d="M699 415L694 289L629 337Z" fill="#4c738a" stroke="#4c738a"></path><path d="M699 415L629 337L617 376Z" fill="#2b556e" stroke="#2b556e"></path><path d="M629 337L694 289L562 226Z" fill="#6d92a7" stroke="#6d92a7"></path><path d="M562 226L565 99L474 173Z" fill="#a0c2d5" stroke="#a0c2d5"></path><path d="M301 377L294 502L360 414Z" fill="#2b556e" stroke="#2b556e"></path><path d="M177 430L294 502L301 377Z" fill="#b2d3e4" stroke="#b2d3e4"></path><path d="M611 502L699 415L617 376Z" fill="#7ea2b6" stroke="#7ea2b6"></path><path d="M312 170L236 221L283 275Z" fill="#4c738a" stroke="#4c738a"></path><path d="M283 275L171 300L301 377Z" fill="#a0c2d5" stroke="#a0c2d5"></path><path d="M712 211L565 99L562 226Z" fill="#a0c2d5" stroke="#a0c2d5"></path><path d="M474 173L423 78L405 188Z" fill="#194761" stroke="#194761"></path><path d="M513 75L423 78L474 173Z" fill="#a0c2d5" stroke="#a0c2d5"></path><path d="M312 170L278 135L236 221Z" fill="#8fb2c5" stroke="#8fb2c5"></path><path d="M565 99L513 75L474 173Z" fill="#194761" stroke="#194761"></path><path d="M411 600L495 600L379 537Z" fill="#6d92a7" stroke="#6d92a7"></path><path d="M379 537L495 600L529 498Z" fill="#3c647c" stroke="#3c647c"></path><path d="M313 600L411 600L379 537Z" fill="#b2d3e4" stroke="#b2d3e4"></path><path d="M423 78L278 135L312 170Z" fill="#b2d3e4" stroke="#b2d3e4"></path><path d="M629 600L663 524L611 502Z" fill="#c4e4f4" stroke="#c4e4f4"></path><path d="M611 502L663 524L699 415Z" fill="#2b556e" stroke="#2b556e"></path><path d="M760 202L712 211L694 289Z" fill="#c4e4f4" stroke="#c4e4f4"></path><path d="M694 289L712 211L562 226Z" fill="#c4e4f4" stroke="#c4e4f4"></path><path d="M89 276L171 300L86 163Z" fill="#6d92a7" stroke="#6d92a7"></path><path d="M236 221L171 300L283 275Z" fill="#c4e4f4" stroke="#c4e4f4"></path><path d="M171 300L177 430L301 377Z" fill="#c4e4f4" stroke="#c4e4f4"></path><path d="M294 502L313 600L379 537Z" fill="#8fb2c5" stroke="#8fb2c5"></path><path d="M198 600L313 600L294 502Z" fill="#4c738a" stroke="#4c738a"></path><path d="M495 600L629 600L529 498Z" fill="#8fb2c5" stroke="#8fb2c5"></path><path d="M177 430L185 497L294 502Z" fill="#2b556e" stroke="#2b556e"></path><path d="M790 387L699 415L796 468Z" fill="#8fb2c5" stroke="#8fb2c5"></path><path d="M790 387L788 329L699 415Z" fill="#4c738a" stroke="#4c738a"></path><path d="M699 415L788 329L694 289Z" fill="#6d92a7" stroke="#6d92a7"></path><path d="M788 329L760 202L694 289Z" fill="#c4e4f4" stroke="#c4e4f4"></path><path d="M712 211L694 91L565 99Z" fill="#a0c2d5" stroke="#a0c2d5"></path><path d="M796 468L699 415L663 524Z" fill="#6d92a7" stroke="#6d92a7"></path><path d="M760 202L694 91L712 211Z" fill="#6d92a7" stroke="#6d92a7"></path><path d="M565 99L520 0L513 75Z" fill="#8fb2c5" stroke="#8fb2c5"></path><path d="M629 600L671 600L663 524Z" fill="#194761" stroke="#194761"></path><path d="M615 0L520 0L565 99Z" fill="#a0c2d5" stroke="#a0c2d5"></path><path d="M513 75L520 0L423 78Z" fill="#4c738a" stroke="#4c738a"></path><path d="M423 78L332 0L278 135Z" fill="#4c738a" stroke="#4c738a"></path><path d="M520 0L378 0L423 78Z" fill="#8fb2c5" stroke="#8fb2c5"></path><path d="M171 300L124 412L177 430Z" fill="#4c738a" stroke="#4c738a"></path><path d="M177 430L101 506L185 497Z" fill="#c4e4f4" stroke="#c4e4f4"></path><path d="M805 600L796 468L663 524Z" fill="#c4e4f4" stroke="#c4e4f4"></path><path d="M900 312L760 202L788 329Z" fill="#4c738a" stroke="#4c738a"></path><path d="M378 0L332 0L423 78Z" fill="#7ea2b6" stroke="#7ea2b6"></path><path d="M278 135L160 122L236 221Z" fill="#3c647c" stroke="#3c647c"></path><path d="M694 91L615 0L565 99Z" fill="#6d92a7" stroke="#6d92a7"></path><path d="M170 0L160 122L278 135Z" fill="#6d92a7" stroke="#6d92a7"></path><path d="M171 300L89 276L124 412Z" fill="#4c738a" stroke="#4c738a"></path><path d="M185 497L198 600L294 502Z" fill="#194761" stroke="#194761"></path><path d="M101 506L198 600L185 497Z" fill="#5c8298" stroke="#5c8298"></path><path d="M86 163L171 300L236 221Z" fill="#2b556e" stroke="#2b556e"></path><path d="M0 497L101 506L124 412Z" fill="#5c8298" stroke="#5c8298"></path><path d="M124 412L101 506L177 430Z" fill="#2b556e" stroke="#2b556e"></path><path d="M160 122L86 163L236 221Z" fill="#194761" stroke="#194761"></path><path d="M78 70L86 163L160 122Z" fill="#c4e4f4" stroke="#c4e4f4"></path><path d="M760 202L811 89L694 91Z" fill="#2b556e" stroke="#2b556e"></path><path d="M694 91L732 0L615 0Z" fill="#8fb2c5" stroke="#8fb2c5"></path><path d="M900 170L811 89L760 202Z" fill="#6d92a7" stroke="#6d92a7"></path><path d="M900 312L788 329L790 387Z" fill="#a0c2d5" stroke="#a0c2d5"></path><path d="M811 89L732 0L694 91Z" fill="#3c647c" stroke="#3c647c"></path><path d="M671 600L805 600L663 524Z" fill="#6d92a7" stroke="#6d92a7"></path><path d="M900 402L900 312L790 387Z" fill="#b2d3e4" stroke="#b2d3e4"></path><path d="M900 402L790 387L796 468Z" fill="#3c647c" stroke="#3c647c"></path><path d="M900 522L900 402L796 468Z" fill="#7ea2b6" stroke="#7ea2b6"></path><path d="M332 0L170 0L278 135Z" fill="#2b556e" stroke="#2b556e"></path><path d="M811 89L774 0L732 0Z" fill="#5c8298" stroke="#5c8298"></path><path d="M0 174L89 276L86 163Z" fill="#3c647c" stroke="#3c647c"></path><path d="M0 174L0 322L89 276Z" fill="#5c8298" stroke="#5c8298"></path><path d="M89 276L0 377L124 412Z" fill="#3c647c" stroke="#3c647c"></path><path d="M0 322L0 377L89 276Z" fill="#7ea2b6" stroke="#7ea2b6"></path><path d="M170 0L78 70L160 122Z" fill="#7ea2b6" stroke="#7ea2b6"></path><path d="M900 312L900 170L760 202Z" fill="#4c738a" stroke="#4c738a"></path><path d="M811 89L900 0L774 0Z" fill="#5c8298" stroke="#5c8298"></path><path d="M0 497L77 600L101 506Z" fill="#6d92a7" stroke="#6d92a7"></path><path d="M101 506L77 600L198 600Z" fill="#2b556e" stroke="#2b556e"></path><path d="M805 600L900 522L796 468Z" fill="#b2d3e4" stroke="#b2d3e4"></path><path d="M0 121L0 174L86 163Z" fill="#c4e4f4" stroke="#c4e4f4"></path><path d="M0 377L0 497L124 412Z" fill="#4c738a" stroke="#4c738a"></path><path d="M900 170L900 97L811 89Z" fill="#5c8298" stroke="#5c8298"></path><path d="M0 0L0 121L78 70Z" fill="#7ea2b6" stroke="#7ea2b6"></path><path d="M78 70L0 121L86 163Z" fill="#c4e4f4" stroke="#c4e4f4"></path><path d="M805 600L900 600L900 522Z" fill="#2b556e" stroke="#2b556e"></path><path d="M170 0L63 0L78 70Z" fill="#2b556e" stroke="#2b556e"></path><path d="M0 497L0 600L77 600Z" fill="#a0c2d5" stroke="#a0c2d5"></path><path d="M900 97L900 0L811 89Z" fill="#4c738a" stroke="#4c738a"></path><path d="M63 0L0 0L78 70Z" fill="#194761" stroke="#194761"></path></g></svg>